 <svg xmlns="http://www.w3.org/2000/svg" viewBox="0 0 1440 320">
            <path
              fill="#ffffff"
              fill-opacity="1"
              
              d="M0,160L24,160C48,160,96,160,144,181.3C192,203,240,245,288,266.7C336,288,384,288,432,272C480,256,528,224,576,202.7C624,181,672,171,720,144C768,117,816,75,864,80C912,85,960,139,1008,144C1056,149,1104,107,1152,74.7C1200,43,1248,21,1296,48C1344,75,1392,149,1416,186.7L1440,224L1440,320L1416,320C1392,320,1344,320,1296,320C1248,320,1200,320,1152,320C1104,320,1056,320,1008,320C960,320,912,320,864,320C816,320,768,320,720,320C672,320,624,320,576,320C528,320,480,320,432,320C384,320,336,320,288,320C240,320,192,320,144,320C96,320,48,320,24,320L0,320Z"
            ></path>
          </svg>